<svg width="80" height="14" viewBox="0 0 80 14" fill="none" xmlns="http://www.w3.org/2000/svg">
<path d="M6.78995 2.32199e-06L-1.15761e-06 13.5815H13.5799L6.78995 2.32199e-06ZM6.78995 3.7663L10.8487 11.9076H2.73115L6.78995 3.7663Z" transform="translate(12.3281)" fill="#45B035"/>
<path d="M6.44855 6.46739L0 0V13.5054H12.8971V0L6.44855 6.46739ZM1.66903 4.0326L5.27264 7.64673L1.66903 11.2609V4.0326ZM11.1901 11.8696H3.376L11.1901 4.0326V11.8696Z" transform="translate(67.103 0.0380859)" fill="#E60013"/>
<path d="M6.60028 0C2.95875 0 0 2.9674 0 6.61958C0 10.2717 2.95875 13.2391 6.60028 13.2391C10.2418 13.2391 13.2006 10.2717 13.2006 6.61958C13.2006 2.9674 10.2418 0 6.60028 0ZM6.60028 11.5652C3.86913 11.5652 1.66904 9.35871 1.66904 6.61958C1.66904 3.88044 3.86913 1.67392 6.60028 1.67392C9.33143 1.67392 11.5315 3.88044 11.5315 6.61958C11.4936 9.35871 9.2935 11.5652 6.60028 11.5652Z" transform="translate(52.8784 0.456543)" fill="#F3981D"/>
<path d="M7.4348 11.4511V1.75C8.91418 2.01631 10.2039 2.92935 10.9625 4.33696L12.4798 3.57609C11.9109 2.51087 11.0763 1.63587 10.0522 0.989133C9.02797 0.342394 7.81413 0 6.60028 0C4.81745 0 3.18635 0.684785 1.93457 1.94022C0.68279 3.19565 0 4.86956 0 6.61956C0 8.40761 0.68279 10.0435 1.93457 11.2989C3.18635 12.5544 4.81745 13.2391 6.60028 13.2391C7.81413 13.2391 9.02797 12.8967 10.0522 12.25C11.0763 11.6413 11.9109 10.7283 12.4798 9.66304L10.9625 8.90217C10.2039 10.2717 8.91418 11.2228 7.4348 11.4511ZM5.72784 11.4511C3.41394 11.0707 1.66903 9.05436 1.66903 6.58153C1.66903 4.14675 3.41394 2.13043 5.72784 1.71196V11.4511Z" transform="translate(39.9053 0.494629)" fill="#7D4798"/>
<path d="M5.42437 0.456526V5.13587L0 0V13.3913H7.13134V9.01631L12.2522 13.8478V0.456526H5.42437ZM5.42437 11.7174H1.66904V3.88044L5.42437 7.41848V11.7174ZM10.5453 9.9674L7.09341 6.7337V2.13044H10.5453V9.9674Z" transform="translate(26.6665 0.152222)" fill="#009DE1"/>
<path d="M9.90043 0V3.2337H1.66904V0H0V12.9728H1.66904V9.77717H9.90043V12.9728H11.6074V0H9.90043ZM9.90043 8.02717H1.66904V4.90761H9.90043V8.02717Z" transform="translate(0 0.608643)" fill="#004098"/>
</svg>
