<svg xmlns="http://www.w3.org/2000/svg" fill="#B1B3B5" height="300" viewBox="0 0 300 300" width="300">
	<!--refresh.svg-->
	<svg x="0" y="0">
		<path d="M14 6V1L12.4246 2.5754C11.1411 1.00355 9.18791 0 7 0C3.13379 0 0 3.13403 0 7C0 10.866 3.13379 14 7 14C10.1714 14 12.8496 11.8915 13.7102 9L11.8999 8C11.4365 10.2822 9.41895 12 7 12C4.23877 12 2 9.76141 2 7C2 4.23859 4.23877 2 7 2C8.63569 2 10.088 2.78544 11.0002 3.99976L9 6H14Z" transform="translate(2.99994 3)"/>
	</svg>
	<!--close.svg-->
	<svg x="40" y="0">
		<path d="M12 1.6L10.4 0L9.1 1.3L6 4.5L2.9 1.3L1.5 0L0 1.5L4.5 6L0 10.5L1.5 12L6 7.5L10.5 12L12 10.5L7.5 6L12 1.6Z" transform="translate(3.99988 4)"/>
	</svg>
	<!--standardColors.svg-->
	<svg x="80" y="0" width="16" height="16">
		<rect x="2.5" y="2.5" width="12" height="12" fill="white" stroke="#404041"/>
		<rect x="9" y="9" width="4" height="4" fill="#36A501"/>
		<rect x="4" y="9" width="4" height="4" fill="#FF7A00"/>
		<rect x="9" y="4" width="4" height="4" fill="#0075FF"/>
		<rect x="4" y="4" width="4" height="4" fill="#ED3A02"/>
	</svg>

	<!--customColors.svg-->
	<svg x="120" y="0">
		<rect x="2.5" y="2.5" width="12" height="12" fill="white" stroke="#404041"/>
		<rect x="0" y="13" width="9" height="9" transform="rotate(-90 2 11)" fill="url(#paint0_linear)"/>
		<defs>
			<linearGradient id="paint0_linear" x1="6.5" y1="13" x2="6.5" y2="22" gradientUnits="userSpaceOnUse">
			    <stop stop-color="#FF0000"/>
			    <stop stop-color="#FF0000"/>
			    <stop offset="0.17" stop-color="#FF7F00"/>
			    <stop offset="0.33" stop-color="#FFFF00"/>
			    <stop offset="0.50" stop-color="#00FF00"/>
			    <stop offset="0.66" stop-color="#00E0FF"/>
			    <stop offset="0.83" stop-color="#0000FF"/>
			    <stop offset="1" stop-color="#BD00FF"/>
		    </linearGradient>
		</defs>
	</svg>

	<!--hidden slide-->
	<svg x="160" y="0" width="16" height="16" fill="none">
		<path d="M9 11H13V10H9V9H13V8H9V7H13V5H9V3V2V1H8V2H0V14H8V15H9V14H10V13H9V11ZM8 5H3V7H8V8H3V9H8V10H3V11H8V13H1V3H8V5Z" fill="#808184"/>
		<path d="M13 2H12V3H13V2Z" fill="#808184"/>
		<path d="M16 5H15V6H16V5Z" fill="#808184"/>
		<path d="M16 3H15V4H16V3Z" fill="#808184"/>
		<path d="M15 2H14V3H15V2Z" fill="#808184"/>
		<path d="M11 2H10V3H11V2Z" fill="#808184"/>
		<path d="M16 7H15V8H16V7Z" fill="#808184"/>
		<path d="M16 9H15V10H16V9Z" fill="#808184"/>
		<path d="M16 11H15V12H16V11Z" fill="#808184"/>
		<path d="M14 13H13V14H14V13Z" fill="#808184"/>
		<path d="M16 13H15V14H16V13Z" fill="#808184"/>
		<path d="M12 13H11V14H12V13Z" fill="#808184"/>
	</svg>

	<!--slide animation -->
	<svg x="200" y="0" width="16" height="16" viewBox="0 0 16 16" fill="none">
		<path d="M3.5 9.5L0.5 12.5" stroke="#808184"/>
		<path d="M5.5 10.5L0.5 15.5" stroke="#808184"/>
		<path d="M6.5 12.5L4.5 14.5" stroke="#808184"/>
		<path d="M3.37091 7C3.53868 6.92767 3.71781 6.84771 3.90413 6.76058C4.85498 6.31598 6.04592 5.66119 6.85355 4.85355C7.66119 4.04592 8.31598 2.85498 8.76058 1.90413C8.84771 1.71781 8.92767 1.53868 9 1.37091C9.07233 1.53868 9.15229 1.71781 9.23942 1.90413C9.68402 2.85498 10.3388 4.04592 11.1464 4.85355C11.9541 5.66119 13.145 6.31598 14.0959 6.76058C14.2822 6.84771 14.4613 6.92767 14.6291 7C14.4613 7.07233 14.2822 7.15229 14.0959 7.23942C13.145 7.68402 11.9541 8.33881 11.1464 9.14645C10.3388 9.95408 9.68402 11.145 9.23942 12.0959C9.15229 12.2822 9.07233 12.4613 9 12.6291C8.92767 12.4613 8.84771 12.2822 8.76058 12.0959C8.31598 11.145 7.66119 9.95408 6.85355 9.14645C6.04592 8.33881 4.85498 7.68402 3.90413 7.23942C3.71781 7.15229 3.53868 7.07233 3.37091 7Z" fill="#808184" stroke="#808184"/>
	</svg>


	<!--Info.svg-->
	<svg x="0" y="40">
		<svg width="26" height="26" viewBox="0 0 26 26" fill="none" xmlns="http://www.w3.org/2000/svg">
		<path fill-rule="evenodd" clip-rule="evenodd" d="M26 13C26 20.1797 20.1797 26 13 26C5.8203 26 0 20.1797 0 13C0 5.8203 5.8203 0 13 0C20.1797 0 26 5.8203 26 13ZM12 8V6H14V8H12ZM12 10V20H14V10H12Z" fill="#1B8DE2"/>
		</svg>
	</svg>

	<!--Warning.svg-->
	<svg x="40" y="40">
		<svg width="26" height="26" viewBox="0 0 26 26" fill="none" xmlns="http://www.w3.org/2000/svg">
		<path fill-rule="evenodd" clip-rule="evenodd" d="M11.1983 2.02696C11.9868 0.657681 14.0132 0.657679 14.8017 2.02696L25.7337 21.0107C26.5046 22.3493 25.5096 24 23.932 24H2.06802C0.490372 24 -0.504572 22.3493 0.266271 21.0107L11.1983 2.02696ZM12 19H14V21H12V19ZM14 8H12V17H14V8Z" fill="#E5D235"/>
		</svg>
	</svg>

	<!--Warning.svg-->
	<svg x="80" y="40">
		<svg width="26" height="26" viewBox="0 0 26 26" fill="none" xmlns="http://www.w3.org/2000/svg">
		<path fill-rule="evenodd" clip-rule="evenodd" d="M13 26C20.1797 26 26 20.1797 26 13C26 5.8203 20.1797 0 13 0C5.8203 0 0 5.8203 0 13C0 20.1797 5.8203 26 13 26ZM7 8.25L8.25 7L13 11.75L17.75 7L19 8.25L14.25 13L19 17.75L17.75 19L13 14.25L8.25 19L7 17.75L11.75 13L7 8.25Z" fill="#E22266"/>
		</svg>
	</svg>
</svg>