<svg xmlns="http://www.w3.org/2000/svg" fill="#1B8DE2" height="500" width="500">
	<svg fill="#FF0000" height="16" width="70" x="40" y="0">
		<polygon points="0,15 70,0 70,1 0,16"/>
	</svg>
	<svg height="16" width="70" x="0" y="60">
		<rect y="7" width="70" height="2"/>
	</svg>
	<svg height="16" width="70" x="0" y="80">
		<rect y="7" width="2" height="2"/>
		<rect x="4" y="7" width="2" height="2"/>
		<rect x="8" y="7" width="2" height="2"/>
		<rect x="12" y="7" width="2" height="2"/>
		<rect x="16" y="7" width="2" height="2"/>
		<rect x="20" y="7" width="2" height="2"/>
		<rect x="24" y="7" width="2" height="2"/>
		<rect x="28" y="7" width="2" height="2"/>
		<rect x="32" y="7" width="2" height="2"/>
		<rect x="36" y="7" width="2" height="2"/>
		<rect x="40" y="7" width="2" height="2"/>
		<rect x="44" y="7" width="2" height="2"/>
		<rect x="48" y="7" width="2" height="2"/>
		<rect x="52" y="7" width="2" height="2"/>
		<rect x="56" y="7" width="2" height="2"/>
		<rect x="60" y="7" width="2" height="2"/>
		<rect x="64" y="7" width="2" height="2"/>
		<rect x="68" y="7" width="2" height="2"/>
	</svg>
	<svg height="16" width="70" x="0" y="100">
		<rect y="7" width="6" height="2"/>
		<rect x="8" y="7" width="6" height="2"/>
		<rect x="16" y="7" width="6" height="2"/>
		<rect x="24" y="7" width="6" height="2"/>
		<rect x="32" y="7" width="6" height="2"/>
		<rect x="40" y="7" width="6" height="2"/>
		<rect x="48" y="7" width="6" height="2"/>
		<rect x="56" y="7" width="6" height="2"/>
		<rect x="64" y="7" width="6" height="2"/>
	</svg>
	<svg height="16" width="70" x="0" y="120">
		<rect x="40" y="7" width="5" height="2"/>
		<rect x="50" y="7" width="5" height="2"/>
		<rect x="60" y="7" width="5" height="2"/>
		<rect y="7" width="5" height="2"/>
		<rect x="10" y="7" width="5" height="2"/>
		<rect x="20" y="7" width="5" height="2"/>
		<rect x="30" y="7" width="5" height="2"/>
	</svg>
	<svg height="16" width="70" x="0" y="140">
		<rect y="7" width="2" height="2"/>
		<rect x="4" y="7" width="5" height="2"/>
		<rect x="11" y="7" width="2" height="2"/>
		<rect x="15" y="7" width="5" height="2"/>
		<rect x="22" y="7" width="2" height="2"/>
		<rect x="26" y="7" width="5" height="2"/>
		<rect x="33" y="7" width="2" height="2"/>
		<rect x="37" y="7" width="5" height="2"/>
		<rect x="44" y="7" width="2" height="2"/>
		<rect x="48" y="7" width="5" height="2"/>
		<rect x="55" y="7" width="2" height="2"/>
		<rect x="59" y="7" width="5" height="2"/>
		<rect x="66" y="7" width="2" height="2"/>
	</svg>
	<svg height="16" width="70" x="0" y="160">
		<rect y="7" width="9" height="2"/>
		<rect x="11" y="7" width="9" height="2"/>
		<rect x="22" y="7" width="9" height="2"/>
		<rect x="33" y="7" width="9" height="2"/>
		<rect x="44" y="7" width="9" height="2"/>
		<rect x="55" y="7" width="9" height="2"/>
		<rect x="66" y="7" width="4" height="2"/>
	</svg>
	<svg height="16" width="70" x="0" y="180">
		<rect y="7" width="9" height="2"/>
		<rect x="11" y="7" width="2" height="2"/>
		<rect x="15" y="7" width="9" height="2"/>
		<rect x="26" y="7" width="2" height="2"/>
		<rect x="30" y="7" width="9" height="2"/>
		<rect x="41" y="7" width="2" height="2"/>
		<rect x="45" y="7" width="9" height="2"/>
		<rect x="56" y="7" width="2" height="2"/>
		<rect x="60" y="7" width="9" height="2"/>
	</svg>
	<svg height="16" width="70" x="0" y="200">
		<rect y="7" width="9" height="2"/>
		<rect x="11" y="7" width="2" height="2"/>
		<rect x="15" y="7" width="2" height="2"/>
		<rect x="19" y="7" width="9" height="2"/>
		<rect x="30" y="7" width="2" height="2"/>
		<rect x="34" y="7" width="2" height="2"/>
		<rect x="38" y="7" width="11" height="2"/>
		<rect x="51" y="7" width="2" height="2"/>
		<rect x="55" y="7" width="2" height="2"/>
		<rect x="59" y="7" width="11" height="2"/>
	</svg>
	<svg height="16" width="70" x="0" y="220">
		<rect y="0" width="70" height="2"/>
		<rect y="4" width="70" height="2"/>
	</svg>

	<svg height="16" width="70" x="120" y="60">
		<rect y="7" width="70" height="2"/>
	</svg>
	<svg height="16" width="70" x="120" y="80">
		<polygon points="9,7 9,3 0,8 9,13 9,9 70,9 70,7 	"/>
	</svg>
	<svg height="16" width="70" x="120" y="100">
		<polygon points="70,7 5.5,7 10,4 9,2 0,8 9,14 10,12 5.5,9 70,9 	"/>
	</svg>
	<svg height="16" width="70" x="120" y="120">
		<polygon points="70,7 10,7 14,3 0,8 14,13 10,9 70,9 	"/>
	</svg>
	<svg height="16" width="70" x="120" y="140">
		<polygon points="9,7 5,3 0,8 5,13 9,9 70,9 70,7 	"/>
	</svg>
	<svg height="16" width="70" x="120" y="160">
		<path d="M70,7H7.9C7.4,5.3,5.9,4,4,4C1.8,4,0,5.8,0,8s1.8,4,4,4c1.9,0,3.4-1.3,3.9-3H70V7z"/>
	</svg>
	
	<svg height="16" width="70" x="220" y="80">
		<polygon points="70,8 61,3 61,7 0,7 0,9 61,9 61,13 	"/>
	</svg>
	<svg height="16" width="70" x="220" y="100">
		<polygon points="61,2 60,4 64.5,7 0,7 0,9 64.5,9 60,12 61,14 70,8 	"/>
	</svg>
	<svg height="16" width="70" x="220" y="120">
		<polygon points="70,8 56,3 60,7 0,7 0,9 60,9 56,13 	"/>
	</svg>
	<svg height="16" width="70" x="220" y="140">
		<polygon points="65,3 61,7 0,7 0,9 61,9 65,13 70,8 	"/>
	</svg>
	<svg height="16" width="70" x="220" y="160">
		<path d="M66,4c-1.9,0-3.4,1.3-3.9,3H0v2h62.1c0.4,1.7,2,3,3.9,3c2.2,0,4-1.8,4-4S68.2,4,66,4z"/>
	</svg>
</svg>
